<svg id="Layer_1" data-name="Layer 1" xmlns="http://www.w3.org/2000/svg" viewBox="0 0 47.83 37.36">
<title>se-logo</title>
<path d="M59.95,116.37a14.8,14.8,0,0,0,7.49,2.11c4.27,0,6.77-2.26,6.77-5.52,0-3-1.73-4.75-6.1-6.43-5.28-1.87-8.54-4.61-8.54-9.17,0-5,4.18-8.78,10.46-8.78a14.7,14.7,0,0,1,7.15,1.58L76,93.56A12.89,12.89,0,0,0,69.88,92c-4.42,0-6.1,2.64-6.1,4.85,0,3,2,4.51,6.43,6.24,5.47,2.11,8.26,4.75,8.26,9.5,0,5-3.7,9.31-11.33,9.31a16.72,16.72,0,0,1-8.26-2.06Z" transform="translate(-56.55 -86.57)" style="fill:#4c4747;stroke:#423e3e;stroke-miterlimit:10;stroke-width:4px"/><path d="M100.94,106.29H88.36V118h14v3.5H84.19V89.1h17.47v3.5H88.36v10.23h12.58Z" 
transform="translate(-56.55 -86.57)" 
style="fill:#4c4747;stroke:#423e3e;stroke-miterlimit:10;stroke-width:4px"/></svg>